<svg width="36" height="28" viewBox="0 0 36 28" fill="none" xmlns="http://www.w3.org/2000/svg">
<path d="M27.6723 10.4999C27.4907 10.4999 27.3074 10.5066 27.1224 10.5191C26.6761 4.64413 21.7533 0 15.7649 0C9.48501 0 4.37546 5.109 4.37546 11.3897C4.37546 11.427 4.37577 11.464 4.37689 11.5014C1.69877 12.9464 0 15.7582 0 18.8277C0 23.4194 3.73528 27.1558 8.32749 27.1558H27.6723C32.2636 27.1558 36 23.4198 36 18.8277C36 14.2358 32.2636 10.4999 27.6723 10.4999ZM27.6723 25.3757H8.32749C4.71718 25.3757 1.77959 22.4379 1.77959 18.8277C1.77959 16.2505 3.30345 13.9047 5.6612 12.8508L6.22452 12.599L6.17656 11.8298C6.16688 11.6838 6.15552 11.5383 6.15552 11.3897C6.15552 6.09082 10.4666 1.77951 15.7655 1.77951C21.0651 1.77951 25.3768 6.09042 25.3753 11.3955C25.3728 11.4371 25.3702 11.4775 25.3698 11.5183L25.3593 12.6053L26.4267 12.4006C26.8485 12.3195 27.2678 12.2791 27.6733 12.2791C31.2842 12.2791 34.2213 15.2163 34.2213 18.8276C34.2213 22.4379 31.2831 25.3757 27.6723 25.3757Z" fill="url(#paint0_linear_14_28)"/>
<defs>
<linearGradient id="paint0_linear_14_28" x1="18" y1="0" x2="18" y2="27.1558" gradientUnits="userSpaceOnUse">
<stop stop-color="#5221E6"/>
<stop offset="1" stop-color="#E95D90"/>
</linearGradient>
</defs>
</svg>
